<svg width="65" height="68" viewBox="0 0 65 68" fill="none" xmlns="http://www.w3.org/2000/svg">
<path d="M26.8918 1.45405C28.0471 1.3175 29.1918 1.79114 29.9486 2.71886L37.1095 11.4977C45.333 13.6338 50.0978 20.1424 52.7331 28.2677C55.4485 36.6401 56.1203 47.2692 56.1203 58.1689C56.1203 60.2064 54.5488 61.8581 52.6104 61.8581H19.8853C18.022 61.8581 16.4834 60.3276 16.3808 58.3721C16.2892 56.6269 16.6712 53.5988 17.8353 50.5059L17.8567 50.4493C14.5511 52.3143 10.8825 51.8676 8.15909 49.8295C4.84942 47.3527 3.00916 42.5041 5.11168 37.7159C6.62784 34.263 8.26192 32.4346 9.49809 31.0517C10.6528 29.7601 11.134 29.1919 11.4744 27.7606C13.5384 19.0828 17.7847 14.0837 22.3448 11.8023C22.2788 10.8137 22.3325 9.86127 22.4479 8.99653C22.735 6.84406 23.4499 4.85494 24.1786 3.40082C24.7205 2.31962 25.7365 1.5906 26.8918 1.45405Z" fill="white"/>
<path fill-rule="evenodd" clip-rule="evenodd" d="M35.2097 14.838L27.2828 5.12018C26.1353 7.40987 25.0229 11.451 26.6222 14.3683C25.846 14.4409 25.1041 14.5789 24.5303 14.821C20.8694 16.3652 16.8525 20.3548 14.8782 28.6555C14.3065 31.059 13.2776 32.21 12.0547 33.578C10.9012 34.8684 9.57502 36.3519 8.29724 39.2619C5.66485 45.2568 12.7691 51.2517 17.9493 45.8068C20.8618 42.7456 23.4075 41.4818 25.5448 40.4208C28.6211 38.8937 30.8513 37.7866 32.111 32.3446C32.7104 34.8831 32.4706 40.8738 26.7168 44.5291C20.9629 48.1845 19.7642 55.8844 19.8841 58.1689H52.6092C52.6092 36.4795 49.8772 17.7399 35.2097 14.838Z" fill="#1F1F1F"/>
<ellipse cx="25.4078" cy="25.8885" rx="2.63239" ry="2.76689" fill="white"/>
</svg>
