<svg width="64" height="68" viewBox="0 0 64 68" fill="none" xmlns="http://www.w3.org/2000/svg">
<path d="M15.87 10.1284C15.87 11.039 16.0094 11.9151 16.2669 12.7346L14.5344 13.5889C13.0981 12.024 11.0824 11.0507 8.8503 11.0507C4.48881 11.0507 0.953125 14.767 0.953125 19.3514C0.953125 23.4379 3.76259 26.8346 7.46207 27.5242L11.6231 42.5195C11.7099 42.8325 11.8359 43.132 11.9976 43.4102L14.3959 47.5351L14.3811 47.5378C12.7046 47.8496 11.4827 49.381 11.4827 51.1706V58.0878C11.4827 60.1253 13.0541 61.777 14.9925 61.777L48.4036 61.777C49.3345 61.777 50.2273 61.3883 50.8855 60.6965C51.5437 60.0046 51.9135 59.0663 51.9135 58.0878V51.1706C51.9135 49.379 50.6889 47.8464 49.01 47.5369L48.9394 47.5239L51.331 43.4102C51.4928 43.132 51.6188 42.8325 51.7056 42.5195L55.8666 27.5242C59.5661 26.8346 62.3756 23.4379 62.3756 19.3514C62.3756 14.767 58.8399 11.0507 54.4784 11.0507C52.2435 11.0507 50.2255 12.0265 48.7889 13.5948L47.0594 12.7421C47.3185 11.9204 47.4587 11.0418 47.4587 10.1284C47.4587 5.54404 43.923 1.8277 39.5615 1.8277C35.2 1.8277 31.6643 5.54404 31.6643 10.1284C31.6643 5.54404 28.1287 1.8277 23.7672 1.8277C19.4057 1.8277 15.87 5.54404 15.87 10.1284Z" fill="white"/>
<path d="M25.3439 14.4339C26.989 13.7687 28.1564 12.0918 28.1564 10.1284C28.1564 7.58154 26.1921 5.51691 23.769 5.51691C21.346 5.51691 19.3817 7.58154 19.3817 10.1284C19.3817 12.482 21.0592 14.4237 23.226 14.7049L21.2694 31.3412L11.8375 22.7307C12.6999 21.8886 13.2395 20.6862 13.2395 19.3514C13.2395 16.8045 11.2752 14.7399 8.85216 14.7399C6.42911 14.7399 4.46484 16.8045 4.46484 19.3514C4.46484 21.8982 6.42911 23.9629 8.85216 23.9629C9.27871 23.9629 9.69103 23.8989 10.0809 23.7796L14.9944 41.4865L20.0755 50.2258L14.9944 51.1706V58.0879L48.4055 58.0879V51.1706L43.2592 50.2219L48.338 41.4865L53.2515 23.7796C53.6414 23.8989 54.0537 23.9629 54.4803 23.9629C56.9033 23.9629 58.8676 21.8982 58.8676 19.3514C58.8676 16.8045 56.9033 14.7399 54.4803 14.7399C52.0572 14.7399 50.0929 16.8045 50.0929 19.3514C50.0929 20.6862 50.6325 21.8886 51.495 22.7307L42.063 31.3412L40.1065 14.7049C42.2733 14.4237 43.9507 12.482 43.9507 10.1284C43.9507 7.58154 41.9864 5.51691 39.5634 5.51691C37.1403 5.51691 35.1761 7.58154 35.1761 10.1284C35.1761 12.0918 36.3435 13.7687 37.9885 14.4339L31.6662 29.4966L25.3439 14.4339Z" fill="#1F1F1F"/>
</svg>
