<svg width="65" height="68" viewBox="0 0 65 68" fill="none" xmlns="http://www.w3.org/2000/svg">
<path d="M23.9287 16.4773C23.576 15.459 23.3831 14.3597 23.3831 13.2145C23.3831 7.94449 27.4476 3.6723 32.4615 3.6723C37.4754 3.6723 41.5399 7.94449 41.5399 13.2145C41.5399 14.7583 41.1889 16.2216 40.5667 17.5155C41.462 17.5806 42.3321 18.0046 42.9664 18.7666C46.4127 22.9065 49.4286 28.8093 49.4286 35.6512C49.4286 40.5426 47.8265 44.1673 45.6616 46.7789L49.7734 47.5369C51.4523 47.8464 52.6769 49.379 52.6769 51.1706V58.0879C52.6769 59.0663 52.3071 60.0047 51.6489 60.6965C50.9907 61.3884 50.0979 61.7771 49.1671 61.7771L15.7559 61.777C13.8175 61.777 12.2461 60.1253 12.2461 58.0878V51.1706C12.2461 49.3811 13.468 47.8496 15.1445 47.5378L18.8536 46.8481C16.6592 44.2316 15.0304 40.5867 15.0304 35.6512C15.0304 30.3132 16.9984 25.6644 19.3067 22.1017C20.7576 19.8624 22.4002 17.9612 23.9287 16.4773Z" fill="white"/>
<path d="M34.1845 35.1635H30.6747C30.6747 28.3893 32.6294 21.6266 36.9539 16.6764C37.6316 15.7069 38.0319 14.5098 38.0319 13.2146C38.0319 9.982 35.5388 7.36151 32.4634 7.36151C29.3879 7.36151 26.8949 9.982 26.8949 13.2146C26.8949 14.8094 27.5018 16.2553 28.486 17.3109C25.0075 19.9174 18.5421 26.9039 18.5421 35.6512C18.5421 44.4787 25.1267 48.0525 28.5809 48.7862L15.7578 51.1706V58.0879L49.1689 58.0879V51.1706L36.0417 48.7507C39.5351 47.9425 45.9206 44.3443 45.9206 35.6512C45.9206 29.9592 43.3979 24.8852 40.3268 21.196C36.9539 23.9629 34.1845 30.4189 34.1845 35.1635Z" fill="#1F1F1F"/>
</svg>
