<svg width="64" height="68" viewBox="0 0 64 68" fill="none" xmlns="http://www.w3.org/2000/svg">
<path d="M23.181 5.51691C23.8203 5.51691 24.4196 5.69656 24.9359 6.01046C25.4522 5.69656 26.0515 5.51691 26.6908 5.51691H36.3429C36.9822 5.51691 37.5816 5.69656 38.0979 6.01046C38.6141 5.69656 39.2135 5.51691 39.8528 5.51691H48.6274C50.5659 5.51691 52.1373 7.16861 52.1373 9.2061V17.5068C52.1373 18.668 51.6171 19.7614 50.7333 20.4581L45.3175 24.7275L46.851 39.2345C47.257 43.0752 48.9578 45.0238 51.4353 48.496C51.891 49.1346 52.1373 49.9113 52.1373 50.7095V58.0879C52.1373 60.1253 50.5659 61.777 48.6274 61.777H14.4063C12.4679 61.777 10.8965 60.1253 10.8965 58.0879V50.7095C10.8965 49.9112 11.1428 49.1346 11.5985 48.496C14.076 45.0238 15.7767 43.0752 16.1827 39.2345L17.7163 24.7275L12.3004 20.4581C11.4166 19.7614 10.8965 18.668 10.8965 17.5068V9.2061C10.8965 7.16861 12.4679 5.51691 14.4063 5.51691H23.181Z" fill="white"/>
<path d="M14.4062 9.20605H23.1809V14.7398H26.6907V9.20605H36.3428V14.7398H39.8527V9.20605H48.6273V17.5067L41.6076 23.0405L43.3625 39.6419H19.671L21.426 23.0405L14.4062 17.5067V9.20605Z" fill="#1F1F1F"/>
<path d="M19.671 43.3311H43.3625L48.6273 50.7094V58.0878H14.4062V50.7094L19.671 43.3311Z" fill="#1F1F1F"/>
</svg>
