<svg width="64" height="68" viewBox="0 0 64 68" fill="none" xmlns="http://www.w3.org/2000/svg">
<g clip-path="url(#clip0_80_589)">
<path fill-rule="evenodd" clip-rule="evenodd" d="M26.6379 4.47935C26.6971 2.48771 28.2502 0.905396 30.146 0.905396H35.4108C37.3065 0.905396 38.8597 2.48771 38.9189 4.47935L38.9498 5.51688H40.6756C42.614 5.51688 44.1854 7.16859 44.1854 9.20607V11.4436C48.0113 10.5336 52.1408 11.1415 55.6457 14.2115C62.9271 20.5893 62.2571 33.9588 53.6157 41.2715C51.5303 43.0362 49.892 44.4992 48.7639 46.0066C48.5065 46.3506 48.286 46.6833 48.1004 47.009L51.6575 47.5147C53.3983 47.7622 54.697 49.3242 54.697 51.1706V58.0878C54.697 60.1253 53.1255 61.777 51.1871 61.777H14.3697C12.4312 61.777 10.8598 60.1253 10.8598 58.0878V51.1706C10.8598 49.3242 12.1585 47.7622 13.8993 47.5147L17.4564 47.009C17.2708 46.6833 17.0503 46.3506 16.7929 46.0066C15.6648 44.4992 14.0265 43.0362 11.9411 41.2715C3.29967 33.9588 2.6297 20.5893 9.91104 14.2115C13.416 11.1415 17.5455 10.5336 21.3714 11.4436V9.20607C21.3714 7.16859 22.9428 5.51688 24.8812 5.51688H26.607L26.6379 4.47935Z" fill="white"/>
<path fill-rule="evenodd" clip-rule="evenodd" d="M30.1479 4.5946H35.4127L35.5498 9.20609H40.6774V14.7399H35.7143L35.9554 21.005C36.0516 20.8859 36.1507 20.7691 36.2528 20.655C41.0465 15.2998 48.154 12.45 53.4007 17.0456C58.6654 21.6571 58.6654 32.2635 51.4165 38.3979C47.3102 41.8728 43.6321 45.2226 43.8134 50.1221L51.189 51.1706V58.0879H14.3716V51.1706L21.7472 50.1221C21.9284 45.2226 18.2504 41.8728 14.1441 38.3979C6.89509 32.2635 6.89509 21.6571 12.1599 17.0456C17.4065 12.45 24.514 15.2998 29.3078 20.655C29.4099 20.7691 29.5089 20.8859 29.6051 21.005L29.8462 14.7399H24.8831V9.20609H30.0108L30.1479 4.5946ZM25.1885 25.7827C28.4058 31.322 28.8317 37.7973 28.8317 40.6133C27.219 40.6163 21.1397 37.8051 17.921 33.1901C15.6037 29.8676 14.9995 24.9381 16.9859 23.0244C18.9723 21.1107 23.1776 22.3206 25.1885 25.7827ZM40.3721 25.7827C37.1547 31.322 36.7289 37.7973 36.7289 40.6133C38.3415 40.6163 44.4208 37.8051 47.6396 33.1901C49.9568 29.8676 50.561 24.9381 48.5746 23.0244C46.5882 21.1107 42.3829 22.3206 40.3721 25.7827Z" fill="#1F1F1F"/>
</g>
<defs>
<clipPath id="clip0_80_589">
<rect width="63.1774" height="66.4054" fill="white" transform="translate(0.3125 0.905396)"/>
</clipPath>
</defs>
</svg>
