<svg width="65" height="67" viewBox="0 0 65 67" fill="none" xmlns="http://www.w3.org/2000/svg">
<path d="M21.1156 38.3773C20.6968 38.9781 20.1972 39.6038 19.6147 40.2475C17.5592 42.5192 15.0383 44.3882 13.4113 45.3654L13.1376 45.5298C12.044 46.1866 11.3691 47.409 11.3691 48.7329V57.6284C11.3691 59.6659 12.9406 61.3176 14.879 61.3176H49.1001C51.0385 61.3176 52.6099 59.6659 52.6099 57.6284V48.7329C52.6099 47.409 51.935 46.1866 50.8415 45.5298L50.5678 45.3654C48.9408 44.3882 46.4198 42.5192 44.3643 40.2475C43.7819 39.6038 43.2823 38.9781 42.8635 38.3773C44.4039 37.9873 45.5484 36.5294 45.5484 34.7906V28.7853C45.5484 27.5865 44.9944 26.4626 44.0627 25.7713L42.5719 24.6653C43.4321 22.9086 43.9189 20.9152 43.9189 18.8041C43.9189 11.7214 38.4563 5.97974 31.7179 5.97974C24.9796 5.97974 19.517 11.7214 19.517 18.8041C19.517 21.034 20.0599 23.1319 21.012 24.9584L19.9164 25.7713C18.9847 26.4626 18.4306 27.5865 18.4306 28.7853V34.7906C18.4306 36.5294 19.5751 37.9873 21.1156 38.3773Z" fill="white"/>
<path d="M40.4089 18.8041C40.4089 21.4535 39.3358 23.8395 37.6216 25.5082L42.0385 28.7853V34.7906H37.7145C37.923 37.5742 39.6222 40.36 41.821 42.79C44.1544 45.3688 46.9619 47.4487 48.8263 48.5685L49.1 48.7329V57.6284H14.8789V48.7329L15.1526 48.5685C17.017 47.4487 19.8244 45.3688 22.1579 42.79C24.3567 40.36 26.0559 37.5742 26.2644 34.7906H21.9404V28.7853L26.054 25.7332C24.2006 24.0579 23.0268 21.5751 23.0268 18.8041C23.0268 13.7589 26.9179 9.66895 31.7179 9.66895C36.5178 9.66895 40.4089 13.7589 40.4089 18.8041Z" fill="#1F1F1F"/>
</svg>
