<svg width="65" height="68" viewBox="0 0 65 68" fill="none" xmlns="http://www.w3.org/2000/svg">
<path d="M23.9287 16.2612C23.576 15.2428 23.3831 14.1436 23.3831 12.9984C23.3831 7.72837 27.4476 3.45618 32.4615 3.45618C37.4754 3.45618 41.5399 7.72837 41.5399 12.9984C41.5399 14.5421 41.1889 16.0055 40.5667 17.2994C41.462 17.3645 42.3321 17.7885 42.9664 18.5505C46.4127 22.6904 49.4286 28.5932 49.4286 35.4351C49.4286 40.3265 47.8265 43.9511 45.6616 46.5628L49.7734 47.3208C51.4523 47.6303 52.6769 49.1629 52.6769 50.9545V57.8717C52.6769 58.8502 52.3071 59.7885 51.6489 60.4804C50.9907 61.1722 50.0979 61.5609 49.1671 61.5609L15.7559 61.5609C13.8175 61.5609 12.2461 59.9092 12.2461 57.8717V50.9545C12.2461 49.1649 13.468 47.6335 15.1445 47.3217L18.8536 46.632C16.6592 44.0155 15.0304 40.3705 15.0304 35.4351C15.0304 30.0971 16.9984 25.4483 19.3067 21.8856C20.7576 19.6462 22.4002 17.7451 23.9287 16.2612Z" fill="#1F1F1F"/>
<path d="M34.1845 34.9473H30.6747C30.6747 28.1732 32.6294 21.4105 36.9539 16.4603C37.6316 15.4908 38.0319 14.2937 38.0319 12.9984C38.0319 9.76587 35.5388 7.14539 32.4634 7.14539C29.3879 7.14539 26.8949 9.76587 26.8949 12.9984C26.8949 14.5933 27.5018 16.0391 28.486 17.0948C25.0075 19.7013 18.5421 26.6878 18.5421 35.4351C18.5421 44.2626 25.1267 47.8364 28.5809 48.5701L15.7578 50.9545V57.8717L49.1689 57.8718V50.9545L36.0417 48.5346C39.5351 47.7263 45.9206 44.1282 45.9206 35.4351C45.9206 29.743 43.3979 24.669 40.3268 20.9798C36.9539 23.7467 34.1845 30.2028 34.1845 34.9473Z" fill="white"/>
</svg>
