<svg width="64" height="68" viewBox="0 0 64 68" fill="none" xmlns="http://www.w3.org/2000/svg">
<g clip-path="url(#clip0_80_570)">
<path fill-rule="evenodd" clip-rule="evenodd" d="M26.6379 4.26329C26.6971 2.27164 28.2502 0.689331 30.146 0.689331H35.4108C37.3065 0.689331 38.8597 2.27164 38.9189 4.26329L38.9498 5.30082H40.6756C42.614 5.30082 44.1854 6.95252 44.1854 8.99001V11.2276C48.0113 10.3175 52.1408 10.9254 55.6457 13.9954C62.9271 20.3732 62.2571 33.7427 53.6157 41.0554C51.5303 42.8201 49.892 44.2831 48.7639 45.7906C48.5065 46.1345 48.286 46.4673 48.1004 46.793L51.6575 47.2986C53.3983 47.5461 54.697 49.1081 54.697 50.9545V57.8718C54.697 59.9093 53.1255 61.561 51.1871 61.561H14.3697C12.4312 61.561 10.8598 59.9093 10.8598 57.8718V50.9545C10.8598 49.1081 12.1585 47.5461 13.8993 47.2986L17.4564 46.793C17.2708 46.4672 17.0503 46.1345 16.7929 45.7906C15.6648 44.2831 14.0265 42.8201 11.9411 41.0554C3.29967 33.7427 2.6297 20.3732 9.91104 13.9954C13.416 10.9254 17.5455 10.3175 21.3714 11.2276V8.99001C21.3714 6.95252 22.9428 5.30082 24.8812 5.30082H26.607L26.6379 4.26329Z" fill="#1F1F1F"/>
<path fill-rule="evenodd" clip-rule="evenodd" d="M30.1479 4.37842H35.4127L35.5498 8.98991H40.6774V14.5237H35.7143L35.9554 20.7888C36.0516 20.6697 36.1507 20.5529 36.2528 20.4388C41.0465 15.0836 48.154 12.2338 53.4007 16.8294C58.6654 21.4409 58.6654 32.0473 51.4165 38.1817C47.3102 41.6566 43.6321 45.0065 43.8134 49.9059L51.189 50.9544V57.8717H14.3716V50.9544L21.7472 49.9059C21.9284 45.0065 18.2504 41.6566 14.1441 38.1817C6.89509 32.0473 6.89509 21.4409 12.1599 16.8294C17.4065 12.2338 24.514 15.0836 29.3078 20.4388C29.4099 20.5529 29.5089 20.6697 29.6051 20.7888L29.8462 14.5237H24.8831V8.98991H30.0108L30.1479 4.37842ZM25.1885 25.5665C28.4058 31.1058 28.8317 37.5811 28.8317 40.3971C27.219 40.4001 21.1397 37.5889 17.921 32.9739C15.6037 29.6514 14.9995 24.722 16.9859 22.8082C18.9723 20.8945 23.1776 22.1044 25.1885 25.5665ZM40.3721 25.5665C37.1547 31.1058 36.7289 37.5811 36.7289 40.3971C38.3415 40.4001 44.4208 37.5889 47.6396 32.9739C49.9568 29.6514 50.561 24.722 48.5746 22.8082C46.5882 20.8945 42.3829 22.1044 40.3721 25.5665Z" fill="white"/>
</g>
<defs>
<clipPath id="clip0_80_570">
<rect width="63.1774" height="66.4054" fill="white" transform="translate(0.3125 0.689331)"/>
</clipPath>
</defs>
</svg>
