<svg width="64" height="68" viewBox="0 0 64 68" fill="none" xmlns="http://www.w3.org/2000/svg">
<path d="M23.181 5.30078C23.8203 5.30078 24.4196 5.48043 24.9359 5.79433C25.4522 5.48043 26.0515 5.30078 26.6908 5.30078H36.3429C36.9822 5.30078 37.5816 5.48043 38.0979 5.79433C38.6141 5.48043 39.2135 5.30078 39.8528 5.30078H48.6274C50.5659 5.30078 52.1373 6.95249 52.1373 8.98997V17.2906C52.1373 18.4518 51.6171 19.5453 50.7333 20.242L45.3175 24.5114L46.851 39.0184C47.257 42.8591 48.9578 44.8077 51.4353 48.2798C51.891 48.9184 52.1373 49.6951 52.1373 50.4934V57.8717C52.1373 59.9092 50.5659 61.5609 48.6274 61.5609H14.4063C12.4679 61.5609 10.8965 59.9092 10.8965 57.8717V50.4934C10.8965 49.6951 11.1428 48.9184 11.5985 48.2798C14.076 44.8077 15.7767 42.8591 16.1827 39.0184L17.7163 24.5114L12.3004 20.242C11.4166 19.5453 10.8965 18.4518 10.8965 17.2906V8.98997C10.8965 6.95249 12.4679 5.30078 14.4063 5.30078H23.181Z" fill="#1F1F1F"/>
<path d="M14.4062 8.98999H23.1809V14.5238H26.6907V8.98999H36.3428V14.5238H39.8527V8.98999H48.6273V17.2907L41.6076 22.8245L43.3625 39.4258H19.671L21.426 22.8245L14.4062 17.2907V8.98999Z" fill="white"/>
<path d="M19.671 43.115H43.3625L48.6273 50.4934V57.8718H14.4062V50.4934L19.671 43.115Z" fill="white"/>
</svg>
