<svg width="64" height="67" viewBox="0 0 64 67" fill="none" xmlns="http://www.w3.org/2000/svg">
<path d="M16.579 9.29061C16.579 10.2012 16.7184 11.0774 16.9759 11.8969L15.2434 12.7511C13.8071 11.1862 11.7913 10.2129 9.55928 10.2129C5.19779 10.2129 1.66211 13.9293 1.66211 18.5136C1.66211 22.6001 4.47157 25.9969 8.17105 26.6864L12.3321 41.6817C12.4189 41.9947 12.5449 42.2942 12.7066 42.5725L15.1048 46.6973L15.0901 46.7001C13.4136 47.0118 12.1917 48.5433 12.1917 50.3328V57.2501C12.1917 59.2875 13.7631 60.9392 15.7015 60.9392L49.1126 60.9393C50.0435 60.9393 50.9362 60.5506 51.5945 59.8587C52.2527 59.1669 52.6225 58.2285 52.6225 57.2501V50.3328C52.6225 48.5412 51.3978 47.0086 49.7189 46.6991L49.6483 46.6861L52.04 42.5725C52.2018 42.2942 52.3277 41.9947 52.4146 41.6817L56.5756 26.6864C60.2751 25.9969 63.0846 22.6001 63.0846 18.5136C63.0846 13.9293 59.5489 10.2129 55.1874 10.2129C52.9525 10.2129 50.9345 11.1887 49.4978 12.757L47.7684 11.9043C48.0275 11.0827 48.1677 10.204 48.1677 9.29061C48.1677 4.70627 44.632 0.989929 40.2705 0.989929C35.909 0.989929 32.3733 4.70627 32.3733 9.29061C32.3733 4.70627 28.8376 0.989929 24.4762 0.989929C20.1147 0.989929 16.579 4.70627 16.579 9.29061Z" fill="#1F1F1F"/>
<path d="M26.0529 13.596C27.6979 12.9308 28.8653 11.254 28.8653 9.29056C28.8653 6.74371 26.9011 4.67908 24.478 4.67908C22.055 4.67908 20.0907 6.74371 20.0907 9.29056C20.0907 11.6441 21.7681 13.5859 23.9349 13.8671L21.9784 30.5034L12.5465 21.8929C13.4089 21.0508 13.9485 19.8484 13.9485 18.5135C13.9485 15.9667 11.9842 13.9021 9.56115 13.9021C7.1381 13.9021 5.17383 15.9667 5.17383 18.5135C5.17383 21.0604 7.1381 23.125 9.56115 23.125C9.98769 23.125 10.4 23.0611 10.7899 22.9417L15.7034 40.6487L20.7845 49.388L15.7034 50.3328V57.25L49.1145 57.25V50.3328L43.9682 49.3841L49.047 40.6487L53.9605 22.9417C54.3504 23.0611 54.7627 23.125 55.1893 23.125C57.6123 23.125 59.5766 21.0604 59.5766 18.5135C59.5766 15.9667 57.6123 13.9021 55.1893 13.9021C52.7662 13.9021 50.8019 15.9667 50.8019 18.5135C50.8019 19.8484 51.3415 21.0508 52.2039 21.8929L42.772 30.5034L40.8155 13.8671C42.9823 13.5859 44.6597 11.6441 44.6597 9.29056C44.6597 6.74371 42.6954 4.67908 40.2724 4.67908C37.8493 4.67908 35.8851 6.74371 35.8851 9.29056C35.8851 11.254 37.0525 12.9308 38.6975 13.596L32.3752 28.6588L26.0529 13.596Z" fill="white"/>
</svg>
