<svg width="64" height="67" viewBox="0 0 64 67" fill="none" xmlns="http://www.w3.org/2000/svg">
<path d="M20.3538 38.08C19.9351 38.6809 19.4354 39.3066 18.853 39.9503C16.7975 42.2219 14.2766 44.0909 12.6496 45.0681L12.3759 45.2325C11.2823 45.8894 10.6074 47.1117 10.6074 48.4356V57.3312C10.6074 59.3686 12.1788 61.0203 14.1173 61.0203H48.3384C50.2768 61.0203 51.8482 59.3686 51.8482 57.3312V48.4356C51.8482 47.1117 51.1733 45.8894 50.0797 45.2325L49.806 45.0681C48.1791 44.0909 45.6581 42.2219 43.6026 39.9503C43.0202 39.3066 42.5205 38.6809 42.1018 38.08C43.6422 37.69 44.7867 36.2321 44.7867 34.4933V28.488C44.7867 27.2893 44.2326 26.1653 43.3009 25.4741L41.8102 24.368C42.6704 22.6114 43.1571 20.618 43.1571 18.5068C43.1571 11.4241 37.6946 5.6825 30.9562 5.6825C24.2178 5.6825 18.7553 11.4241 18.7553 18.5068C18.7553 20.7367 19.2982 22.8347 20.2503 24.6612L19.1547 25.4741C18.223 26.1653 17.6689 27.2893 17.6689 28.488V34.4933C17.6689 36.2321 18.8134 37.69 20.3538 38.08Z" fill="#1F1F1F"/>
<path d="M39.6452 18.5068C39.6452 21.1563 38.5722 23.5423 36.8579 25.2109L41.2748 28.488V34.4933H36.9508C37.1594 37.277 38.8586 40.0628 41.0573 42.4928C43.3908 45.0716 46.1982 47.1514 48.0626 48.2713L48.3363 48.4356V57.3312H14.1152V48.4356L14.3889 48.2713C16.2534 47.1514 19.0608 45.0716 21.3942 42.4928C23.593 40.0628 25.2922 37.277 25.5007 34.4933H21.1767V28.488L25.2903 25.4359C23.4369 23.7606 22.2631 21.2778 22.2631 18.5068C22.2631 13.4616 26.1542 9.3717 30.9542 9.3717C35.7541 9.3717 39.6452 13.4616 39.6452 18.5068Z" fill="white"/>
</svg>
