<svg width="64" height="68" viewBox="0 0 64 68" fill="none" xmlns="http://www.w3.org/2000/svg">
<path d="M26.6555 1.15693C27.8108 1.02038 28.9555 1.49402 29.7123 2.42174L36.8732 11.2006C45.0967 13.3366 49.8615 19.8453 52.4967 27.9706C55.2122 36.343 55.8839 46.9721 55.8839 57.8718C55.8839 59.9093 54.3125 61.561 52.3741 61.561H19.649C17.7857 61.561 16.2471 60.0305 16.1445 58.0749C16.0529 56.3298 16.4349 53.3017 17.5989 50.2088L17.6203 50.1522C14.3147 52.0172 10.6461 51.5705 7.92276 49.5324C4.61309 47.0556 2.77283 42.207 4.87535 37.4187C6.39151 33.9659 8.02559 32.1375 9.26176 30.7546C10.4165 29.4629 10.8977 28.8948 11.2381 27.4635C13.3021 18.7857 17.5484 13.7866 22.1085 11.5052C22.0425 10.5166 22.0962 9.56415 22.2115 8.69941C22.4987 6.54694 23.2136 4.55782 23.9423 3.1037C24.4841 2.0225 25.5002 1.29348 26.6555 1.15693Z" fill="#1F1F1F"/>
<path fill-rule="evenodd" clip-rule="evenodd" d="M34.9733 14.5409L27.0464 4.823C25.899 7.11269 24.7866 11.1538 26.3859 14.0711C25.6097 14.1438 24.8678 14.2818 24.294 14.5238C20.6331 16.068 16.6162 20.0576 14.6419 28.3583C14.0702 30.7618 13.0413 31.9128 11.8184 33.2808C10.6648 34.5712 9.33869 36.0547 8.06091 38.9647C5.42853 44.9596 12.5327 50.9546 17.713 45.5096C20.6254 42.4484 23.1712 41.1846 25.3085 40.1236C28.3847 38.5965 30.6149 37.4894 31.8747 32.0475C32.4741 34.5859 32.2343 40.5766 26.4805 44.2319C20.7266 47.8873 19.5279 55.5872 19.6478 57.8718H52.3728C52.3728 36.1823 49.6408 17.4427 34.9733 14.5409Z" fill="white"/>
<ellipse cx="25.1715" cy="25.5914" rx="2.63239" ry="2.76689" fill="#1F1F1F"/>
</svg>
